M48
;GenerationSoftware,Autodesk,EAGLE,9.6.2*%
;CreationDate,2022-05-16T16:58:52Z*%
FMAT,2
ICI,OFF
METRIC,TZ,000.000
T4C0.350
T3C1.000
T2C1.016
T1C3.000
%
G90
M71
T1
X3000Y3000
X3000Y47000
X97000Y3000
X97000Y47000
T2
X47700Y3050
X17954Y6641
X47700Y5590
X47700Y8130
X47700Y10670
X47700Y13210
X47700Y15750
X35051Y2119
X28549Y2119
X35051Y6641
X28549Y6641
X7359Y2119
X24456Y2119
X17954Y2119
X24456Y6641
X13861Y2119
X13861Y6641
X7359Y6641
X78599Y23681
X85101Y23681
X78599Y19159
X85101Y19159
X7359Y16811
X13861Y16811
X7359Y12289
X13861Y12289
T3
X86250Y11010
X81450Y8010
X51060Y46600
X81450Y14110
X53600Y46600
X11330Y34570
X8330Y39370
X14430Y39370
X48520Y46600
X45980Y46600
X43440Y46600
X40900Y46600
X40900Y36440
X43440Y36440
X45980Y36440
X48520Y36440
X51060Y36440
X53600Y36440
X56140Y36440
X58680Y36440
X58680Y46600
X56140Y46600
T4
X59100Y4500
X59000Y17500
X46600Y33600
X10200Y30700
X87400Y3900
X59100Y7100
X23700Y15900
X59100Y5800
X34700Y15900
X36300Y14300
X59100Y3200
X53300Y34500
M30