M48
;GenerationSoftware,Autodesk,EAGLE,9.6.2*%
;CreationDate,2022-05-17T11:10:20Z*%
FMAT,2
ICI,OFF
METRIC,TZ,000.000
T5C0.300
T4C0.350
T3C1.000
T2C1.016
T1C3.000
%
G90
M71
T1
X97000Y47000
X97000Y3000
X3000Y47000
X3000Y3000
T2
X47700Y13210
X47700Y15750
X24456Y2119
X47700Y5590
X47700Y8130
X47700Y10670
X78599Y23681
X85101Y23681
X78599Y19159
X85101Y19159
X7359Y16811
X13861Y16811
X7359Y12289
X13861Y12289
X7359Y6641
X13861Y6641
X7359Y2119
X13861Y2119
X35051Y2119
X28549Y2119
X35051Y6641
X28549Y6641
X47700Y3050
X17954Y2119
X24456Y6641
X17954Y6641
T3
X40900Y36440
X43440Y36440
X45980Y36440
X48520Y36440
X51060Y36440
X53600Y36440
X56140Y36440
X58680Y36440
X58680Y46600
X56140Y46600
X53600Y46600
X51060Y46600
X86250Y11010
X81450Y8010
X81450Y14110
X11330Y34570
X8330Y39370
X14430Y39370
X48520Y46600
X45980Y46600
X43440Y46600
X40900Y46600
T4
X59100Y3200
X36300Y14300
X34700Y15900
X53300Y34500
X23700Y15900
X59100Y7100
X59100Y4500
X59000Y17500
X87400Y3900
X10200Y30700
X79000Y35500
X81000Y35500
X82900Y35500
X84800Y35500
X86500Y35500
X69200Y16700
X69200Y18200
X69200Y19600
X69200Y21100
X37000Y23700
X37000Y24800
X59100Y5800
X46600Y33600
X35900Y41700
X37600Y41700
X37600Y43500
X35900Y43500
X35900Y45200
X37600Y45200
X56100Y38000
X56200Y32500
X59000Y34100
X58900Y38100
X62100Y36400
X62000Y37800
X64400Y36500
X64400Y37900
X67000Y36500
X66900Y37800
X67000Y27800
X64600Y27700
X62000Y27800
X59500Y27800
X57100Y27700
X54500Y27800
X38600Y31500
X46500Y31500
X42600Y31500
X42800Y34300
X45300Y27900
X46500Y27900
X42300Y27900
X43200Y27000
X40000Y26300
X39100Y27200
X38100Y28100
T5
X51400Y22500
X50000Y23800
M30