G04 EAGLE Gerber RS-274X export*
G75*
%MOMM*%
%FSLAX34Y34*%
%LPD*%
%IN*%
%IPPOS*%
%AMOC8*
5,1,8,0,0,1.08239X$1,22.5*%
G01*
%ADD10C,0.254000*%


D10*
X0Y0D02*
X1000000Y0D01*
X1000000Y500000D01*
X0Y500000D01*
X0Y0D01*
X800500Y75100D02*
X828500Y75100D01*
X828500Y85100D01*
X800500Y85100D01*
X800500Y75100D01*
X99300Y340700D02*
X127300Y340700D01*
X127300Y350700D01*
X99300Y350700D01*
X99300Y340700D01*
X857500Y96100D02*
X867500Y96100D01*
X867500Y124100D01*
X857500Y124100D01*
X857500Y96100D01*
X78300Y379700D02*
X88300Y379700D01*
X88300Y407700D01*
X78300Y407700D01*
X78300Y379700D01*
X139300Y377200D02*
X149300Y377200D01*
X149300Y410200D01*
X139300Y410200D01*
X139300Y377200D01*
X798000Y136100D02*
X831000Y136100D01*
X831000Y146100D01*
X798000Y146100D01*
X798000Y136100D01*
X985000Y469464D02*
X984924Y468396D01*
X984771Y467335D01*
X984543Y466288D01*
X984241Y465260D01*
X983867Y464256D01*
X983422Y463281D01*
X982908Y462341D01*
X982329Y461440D01*
X981687Y460582D01*
X980985Y459772D01*
X980228Y459015D01*
X979418Y458313D01*
X978560Y457671D01*
X977659Y457092D01*
X976719Y456578D01*
X975744Y456133D01*
X974740Y455759D01*
X973712Y455457D01*
X972665Y455229D01*
X971604Y455076D01*
X970536Y455000D01*
X969464Y455000D01*
X968396Y455076D01*
X967335Y455229D01*
X966288Y455457D01*
X965260Y455759D01*
X964256Y456133D01*
X963281Y456578D01*
X962341Y457092D01*
X961440Y457671D01*
X960582Y458313D01*
X959772Y459015D01*
X959015Y459772D01*
X958313Y460582D01*
X957671Y461440D01*
X957092Y462341D01*
X956578Y463281D01*
X956133Y464256D01*
X955759Y465260D01*
X955457Y466288D01*
X955229Y467335D01*
X955076Y468396D01*
X955000Y469464D01*
X955000Y470536D01*
X955076Y471604D01*
X955229Y472665D01*
X955457Y473712D01*
X955759Y474740D01*
X956133Y475744D01*
X956578Y476719D01*
X957092Y477659D01*
X957671Y478560D01*
X958313Y479418D01*
X959015Y480228D01*
X959772Y480985D01*
X960582Y481687D01*
X961440Y482329D01*
X962341Y482908D01*
X963281Y483422D01*
X964256Y483867D01*
X965260Y484241D01*
X966288Y484543D01*
X967335Y484771D01*
X968396Y484924D01*
X969464Y485000D01*
X970536Y485000D01*
X971604Y484924D01*
X972665Y484771D01*
X973712Y484543D01*
X974740Y484241D01*
X975744Y483867D01*
X976719Y483422D01*
X977659Y482908D01*
X978560Y482329D01*
X979418Y481687D01*
X980228Y480985D01*
X980985Y480228D01*
X981687Y479418D01*
X982329Y478560D01*
X982908Y477659D01*
X983422Y476719D01*
X983867Y475744D01*
X984241Y474740D01*
X984543Y473712D01*
X984771Y472665D01*
X984924Y471604D01*
X985000Y470536D01*
X985000Y469464D01*
X985000Y29464D02*
X984924Y28396D01*
X984771Y27335D01*
X984543Y26288D01*
X984241Y25260D01*
X983867Y24256D01*
X983422Y23281D01*
X982908Y22341D01*
X982329Y21440D01*
X981687Y20582D01*
X980985Y19772D01*
X980228Y19015D01*
X979418Y18313D01*
X978560Y17671D01*
X977659Y17092D01*
X976719Y16578D01*
X975744Y16133D01*
X974740Y15759D01*
X973712Y15457D01*
X972665Y15229D01*
X971604Y15076D01*
X970536Y15000D01*
X969464Y15000D01*
X968396Y15076D01*
X967335Y15229D01*
X966288Y15457D01*
X965260Y15759D01*
X964256Y16133D01*
X963281Y16578D01*
X962341Y17092D01*
X961440Y17671D01*
X960582Y18313D01*
X959772Y19015D01*
X959015Y19772D01*
X958313Y20582D01*
X957671Y21440D01*
X957092Y22341D01*
X956578Y23281D01*
X956133Y24256D01*
X955759Y25260D01*
X955457Y26288D01*
X955229Y27335D01*
X955076Y28396D01*
X955000Y29464D01*
X955000Y30536D01*
X955076Y31604D01*
X955229Y32665D01*
X955457Y33712D01*
X955759Y34740D01*
X956133Y35744D01*
X956578Y36719D01*
X957092Y37659D01*
X957671Y38560D01*
X958313Y39418D01*
X959015Y40228D01*
X959772Y40985D01*
X960582Y41687D01*
X961440Y42329D01*
X962341Y42908D01*
X963281Y43422D01*
X964256Y43867D01*
X965260Y44241D01*
X966288Y44543D01*
X967335Y44771D01*
X968396Y44924D01*
X969464Y45000D01*
X970536Y45000D01*
X971604Y44924D01*
X972665Y44771D01*
X973712Y44543D01*
X974740Y44241D01*
X975744Y43867D01*
X976719Y43422D01*
X977659Y42908D01*
X978560Y42329D01*
X979418Y41687D01*
X980228Y40985D01*
X980985Y40228D01*
X981687Y39418D01*
X982329Y38560D01*
X982908Y37659D01*
X983422Y36719D01*
X983867Y35744D01*
X984241Y34740D01*
X984543Y33712D01*
X984771Y32665D01*
X984924Y31604D01*
X985000Y30536D01*
X985000Y29464D01*
X45000Y469464D02*
X44924Y468396D01*
X44771Y467335D01*
X44543Y466288D01*
X44241Y465260D01*
X43867Y464256D01*
X43422Y463281D01*
X42908Y462341D01*
X42329Y461440D01*
X41687Y460582D01*
X40985Y459772D01*
X40228Y459015D01*
X39418Y458313D01*
X38560Y457671D01*
X37659Y457092D01*
X36719Y456578D01*
X35744Y456133D01*
X34740Y455759D01*
X33712Y455457D01*
X32665Y455229D01*
X31604Y455076D01*
X30536Y455000D01*
X29464Y455000D01*
X28396Y455076D01*
X27335Y455229D01*
X26288Y455457D01*
X25260Y455759D01*
X24256Y456133D01*
X23281Y456578D01*
X22341Y457092D01*
X21440Y457671D01*
X20582Y458313D01*
X19772Y459015D01*
X19015Y459772D01*
X18313Y460582D01*
X17671Y461440D01*
X17092Y462341D01*
X16578Y463281D01*
X16133Y464256D01*
X15759Y465260D01*
X15457Y466288D01*
X15229Y467335D01*
X15076Y468396D01*
X15000Y469464D01*
X15000Y470536D01*
X15076Y471604D01*
X15229Y472665D01*
X15457Y473712D01*
X15759Y474740D01*
X16133Y475744D01*
X16578Y476719D01*
X17092Y477659D01*
X17671Y478560D01*
X18313Y479418D01*
X19015Y480228D01*
X19772Y480985D01*
X20582Y481687D01*
X21440Y482329D01*
X22341Y482908D01*
X23281Y483422D01*
X24256Y483867D01*
X25260Y484241D01*
X26288Y484543D01*
X27335Y484771D01*
X28396Y484924D01*
X29464Y485000D01*
X30536Y485000D01*
X31604Y484924D01*
X32665Y484771D01*
X33712Y484543D01*
X34740Y484241D01*
X35744Y483867D01*
X36719Y483422D01*
X37659Y482908D01*
X38560Y482329D01*
X39418Y481687D01*
X40228Y480985D01*
X40985Y480228D01*
X41687Y479418D01*
X42329Y478560D01*
X42908Y477659D01*
X43422Y476719D01*
X43867Y475744D01*
X44241Y474740D01*
X44543Y473712D01*
X44771Y472665D01*
X44924Y471604D01*
X45000Y470536D01*
X45000Y469464D01*
X45000Y29464D02*
X44924Y28396D01*
X44771Y27335D01*
X44543Y26288D01*
X44241Y25260D01*
X43867Y24256D01*
X43422Y23281D01*
X42908Y22341D01*
X42329Y21440D01*
X41687Y20582D01*
X40985Y19772D01*
X40228Y19015D01*
X39418Y18313D01*
X38560Y17671D01*
X37659Y17092D01*
X36719Y16578D01*
X35744Y16133D01*
X34740Y15759D01*
X33712Y15457D01*
X32665Y15229D01*
X31604Y15076D01*
X30536Y15000D01*
X29464Y15000D01*
X28396Y15076D01*
X27335Y15229D01*
X26288Y15457D01*
X25260Y15759D01*
X24256Y16133D01*
X23281Y16578D01*
X22341Y17092D01*
X21440Y17671D01*
X20582Y18313D01*
X19772Y19015D01*
X19015Y19772D01*
X18313Y20582D01*
X17671Y21440D01*
X17092Y22341D01*
X16578Y23281D01*
X16133Y24256D01*
X15759Y25260D01*
X15457Y26288D01*
X15229Y27335D01*
X15076Y28396D01*
X15000Y29464D01*
X15000Y30536D01*
X15076Y31604D01*
X15229Y32665D01*
X15457Y33712D01*
X15759Y34740D01*
X16133Y35744D01*
X16578Y36719D01*
X17092Y37659D01*
X17671Y38560D01*
X18313Y39418D01*
X19015Y40228D01*
X19772Y40985D01*
X20582Y41687D01*
X21440Y42329D01*
X22341Y42908D01*
X23281Y43422D01*
X24256Y43867D01*
X25260Y44241D01*
X26288Y44543D01*
X27335Y44771D01*
X28396Y44924D01*
X29464Y45000D01*
X30536Y45000D01*
X31604Y44924D01*
X32665Y44771D01*
X33712Y44543D01*
X34740Y44241D01*
X35744Y43867D01*
X36719Y43422D01*
X37659Y42908D01*
X38560Y42329D01*
X39418Y41687D01*
X40228Y40985D01*
X40985Y40228D01*
X41687Y39418D01*
X42329Y38560D01*
X42908Y37659D01*
X43422Y36719D01*
X43867Y35744D01*
X44241Y34740D01*
X44543Y33712D01*
X44771Y32665D01*
X44924Y31604D01*
X45000Y30536D01*
X45000Y29464D01*
M02*
