G04 EAGLE Gerber RS-274X export*
G75*
%MOMM*%
%FSLAX34Y34*%
%LPD*%
%INSoldermask Bottom*%
%IPPOS*%
%AMOC8*
5,1,8,0,0,1.08239X$1,22.5*%
G01*
%ADD10C,3.203200*%
%ADD11C,2.203200*%
%ADD12C,2.082800*%
%ADD13R,1.711200X1.711200*%
%ADD14C,1.711200*%
%ADD15C,1.727200*%
%ADD16C,0.959600*%


D10*
X970000Y470000D03*
X970000Y30000D03*
X30000Y470000D03*
X30000Y30000D03*
D11*
X144300Y383700D02*
X144300Y403700D01*
X83300Y403700D02*
X83300Y383700D01*
X103300Y345700D02*
X123300Y345700D01*
X804500Y141100D02*
X824500Y141100D01*
X824500Y80100D02*
X804500Y80100D01*
X862500Y100100D02*
X862500Y120100D01*
D12*
X785988Y236806D03*
X851012Y236806D03*
X785988Y191594D03*
X851012Y191594D03*
X73588Y168106D03*
X138612Y168106D03*
X73588Y122894D03*
X138612Y122894D03*
X73588Y66406D03*
X138612Y66406D03*
X73588Y21194D03*
X138612Y21194D03*
X179538Y66406D03*
X244562Y66406D03*
X179538Y21194D03*
X244562Y21194D03*
X285488Y66406D03*
X350512Y66406D03*
X285488Y21194D03*
X350512Y21194D03*
D13*
X409000Y364400D03*
D14*
X434400Y364400D03*
X459800Y364400D03*
X485200Y364400D03*
X510600Y364400D03*
X536000Y364400D03*
X561400Y364400D03*
X586800Y364400D03*
X586800Y466000D03*
X561400Y466000D03*
X536000Y466000D03*
X510600Y466000D03*
X485200Y466000D03*
X459800Y466000D03*
X434400Y466000D03*
X409000Y466000D03*
D15*
X469380Y157500D02*
X484620Y157500D01*
X484620Y132100D02*
X469380Y132100D01*
X469380Y106700D02*
X484620Y106700D01*
X484620Y81300D02*
X469380Y81300D01*
X469380Y55900D02*
X484620Y55900D01*
X484620Y30500D02*
X469380Y30500D01*
D16*
X533000Y345000D03*
X466000Y336000D03*
X102000Y307000D03*
X874000Y39000D03*
X590000Y175000D03*
X591000Y45000D03*
X591000Y32000D03*
X363000Y143000D03*
X347000Y159000D03*
X591000Y58000D03*
X237000Y159000D03*
X591000Y71000D03*
M02*
