G04 EAGLE Gerber RS-274X export*
G75*
%MOMM*%
%FSLAX34Y34*%
%LPD*%
%INSoldermask Top*%
%IPPOS*%
%AMOC8*
5,1,8,0,0,1.08239X$1,22.5*%
G01*
%ADD10C,3.203200*%
%ADD11C,0.406400*%
%ADD12C,0.025400*%
%ADD13C,0.304800*%
%ADD14R,1.203200X1.303200*%
%ADD15R,3.703200X1.803200*%
%ADD16R,1.303200X1.203200*%
%ADD17R,1.003200X1.803200*%
%ADD18R,1.981200X3.708400*%
%ADD19R,1.728200X0.903200*%
%ADD20C,2.203200*%
%ADD21R,1.003200X1.003200*%
%ADD22R,1.103200X2.003200*%
%ADD23R,3.403200X2.003200*%
%ADD24C,2.082800*%
%ADD25R,0.703200X1.203200*%
%ADD26R,1.711200X1.711200*%
%ADD27C,1.711200*%
%ADD28R,4.703200X2.703200*%
%ADD29R,2.203200X1.103200*%
%ADD30R,1.103200X2.203200*%
%ADD31R,5.203200X5.203200*%
%ADD32C,1.727200*%


D10*
X970000Y470000D03*
X970000Y30000D03*
X30000Y470000D03*
X30000Y30000D03*
D11*
X947000Y372000D02*
X977000Y372000D01*
X788000Y413000D02*
X748000Y373000D01*
X788000Y413000D02*
X795000Y406000D01*
X800000Y406000D01*
X800000Y413000D01*
X868000Y413000D01*
X868000Y409000D01*
X873000Y409000D01*
X873000Y404000D01*
X880000Y397000D01*
X880000Y396000D01*
X901000Y396000D01*
X911000Y406000D01*
X915000Y406000D01*
X918000Y403000D01*
X918000Y401000D01*
X947000Y372000D01*
X881380Y435000D02*
X881385Y435383D01*
X881399Y435766D01*
X881422Y436149D01*
X881455Y436531D01*
X881497Y436912D01*
X881549Y437292D01*
X881610Y437670D01*
X881680Y438047D01*
X881760Y438422D01*
X881848Y438795D01*
X881946Y439166D01*
X882053Y439534D01*
X882168Y439900D01*
X882293Y440262D01*
X882427Y440622D01*
X882569Y440978D01*
X882720Y441330D01*
X882880Y441678D01*
X883048Y442023D01*
X883224Y442363D01*
X883409Y442699D01*
X883602Y443030D01*
X883803Y443357D01*
X884012Y443678D01*
X884229Y443994D01*
X884454Y444305D01*
X884686Y444610D01*
X884926Y444909D01*
X885172Y445203D01*
X885426Y445490D01*
X885687Y445771D01*
X885955Y446045D01*
X886229Y446313D01*
X886510Y446574D01*
X886797Y446828D01*
X887091Y447074D01*
X887390Y447314D01*
X887695Y447546D01*
X888006Y447771D01*
X888322Y447988D01*
X888643Y448197D01*
X888970Y448398D01*
X889301Y448591D01*
X889637Y448776D01*
X889977Y448952D01*
X890322Y449120D01*
X890670Y449280D01*
X891022Y449431D01*
X891378Y449573D01*
X891738Y449707D01*
X892100Y449832D01*
X892466Y449947D01*
X892834Y450054D01*
X893205Y450152D01*
X893578Y450240D01*
X893953Y450320D01*
X894330Y450390D01*
X894708Y450451D01*
X895088Y450503D01*
X895469Y450545D01*
X895851Y450578D01*
X896234Y450601D01*
X896617Y450615D01*
X897000Y450620D01*
X897383Y450615D01*
X897766Y450601D01*
X898149Y450578D01*
X898531Y450545D01*
X898912Y450503D01*
X899292Y450451D01*
X899670Y450390D01*
X900047Y450320D01*
X900422Y450240D01*
X900795Y450152D01*
X901166Y450054D01*
X901534Y449947D01*
X901900Y449832D01*
X902262Y449707D01*
X902622Y449573D01*
X902978Y449431D01*
X903330Y449280D01*
X903678Y449120D01*
X904023Y448952D01*
X904363Y448776D01*
X904699Y448591D01*
X905030Y448398D01*
X905357Y448197D01*
X905678Y447988D01*
X905994Y447771D01*
X906305Y447546D01*
X906610Y447314D01*
X906909Y447074D01*
X907203Y446828D01*
X907490Y446574D01*
X907771Y446313D01*
X908045Y446045D01*
X908313Y445771D01*
X908574Y445490D01*
X908828Y445203D01*
X909074Y444909D01*
X909314Y444610D01*
X909546Y444305D01*
X909771Y443994D01*
X909988Y443678D01*
X910197Y443357D01*
X910398Y443030D01*
X910591Y442699D01*
X910776Y442363D01*
X910952Y442023D01*
X911120Y441678D01*
X911280Y441330D01*
X911431Y440978D01*
X911573Y440622D01*
X911707Y440262D01*
X911832Y439900D01*
X911947Y439534D01*
X912054Y439166D01*
X912152Y438795D01*
X912240Y438422D01*
X912320Y438047D01*
X912390Y437670D01*
X912451Y437292D01*
X912503Y436912D01*
X912545Y436531D01*
X912578Y436149D01*
X912601Y435766D01*
X912615Y435383D01*
X912620Y435000D01*
X912615Y434617D01*
X912601Y434234D01*
X912578Y433851D01*
X912545Y433469D01*
X912503Y433088D01*
X912451Y432708D01*
X912390Y432330D01*
X912320Y431953D01*
X912240Y431578D01*
X912152Y431205D01*
X912054Y430834D01*
X911947Y430466D01*
X911832Y430100D01*
X911707Y429738D01*
X911573Y429378D01*
X911431Y429022D01*
X911280Y428670D01*
X911120Y428322D01*
X910952Y427977D01*
X910776Y427637D01*
X910591Y427301D01*
X910398Y426970D01*
X910197Y426643D01*
X909988Y426322D01*
X909771Y426006D01*
X909546Y425695D01*
X909314Y425390D01*
X909074Y425091D01*
X908828Y424797D01*
X908574Y424510D01*
X908313Y424229D01*
X908045Y423955D01*
X907771Y423687D01*
X907490Y423426D01*
X907203Y423172D01*
X906909Y422926D01*
X906610Y422686D01*
X906305Y422454D01*
X905994Y422229D01*
X905678Y422012D01*
X905357Y421803D01*
X905030Y421602D01*
X904699Y421409D01*
X904363Y421224D01*
X904023Y421048D01*
X903678Y420880D01*
X903330Y420720D01*
X902978Y420569D01*
X902622Y420427D01*
X902262Y420293D01*
X901900Y420168D01*
X901534Y420053D01*
X901166Y419946D01*
X900795Y419848D01*
X900422Y419760D01*
X900047Y419680D01*
X899670Y419610D01*
X899292Y419549D01*
X898912Y419497D01*
X898531Y419455D01*
X898149Y419422D01*
X897766Y419399D01*
X897383Y419385D01*
X897000Y419380D01*
X896617Y419385D01*
X896234Y419399D01*
X895851Y419422D01*
X895469Y419455D01*
X895088Y419497D01*
X894708Y419549D01*
X894330Y419610D01*
X893953Y419680D01*
X893578Y419760D01*
X893205Y419848D01*
X892834Y419946D01*
X892466Y420053D01*
X892100Y420168D01*
X891738Y420293D01*
X891378Y420427D01*
X891022Y420569D01*
X890670Y420720D01*
X890322Y420880D01*
X889977Y421048D01*
X889637Y421224D01*
X889301Y421409D01*
X888970Y421602D01*
X888643Y421803D01*
X888322Y422012D01*
X888006Y422229D01*
X887695Y422454D01*
X887390Y422686D01*
X887091Y422926D01*
X886797Y423172D01*
X886510Y423426D01*
X886229Y423687D01*
X885955Y423955D01*
X885687Y424229D01*
X885426Y424510D01*
X885172Y424797D01*
X884926Y425091D01*
X884686Y425390D01*
X884454Y425695D01*
X884229Y426006D01*
X884012Y426322D01*
X883803Y426643D01*
X883602Y426970D01*
X883409Y427301D01*
X883224Y427637D01*
X883048Y427977D01*
X882880Y428322D01*
X882720Y428670D01*
X882569Y429022D01*
X882427Y429378D01*
X882293Y429738D01*
X882168Y430100D01*
X882053Y430466D01*
X881946Y430834D01*
X881848Y431205D01*
X881760Y431578D01*
X881680Y431953D01*
X881610Y432330D01*
X881549Y432708D01*
X881497Y433088D01*
X881455Y433469D01*
X881422Y433851D01*
X881399Y434234D01*
X881385Y434617D01*
X881380Y435000D01*
X897000Y417000D02*
X897000Y412000D01*
X897000Y454000D02*
X897000Y459000D01*
X878000Y435000D02*
X873000Y435000D01*
X916000Y435000D02*
X921000Y435000D01*
X883000Y422000D02*
X879000Y418000D01*
X910000Y449000D02*
X914000Y453000D01*
X911000Y422000D02*
X915000Y418000D01*
X884000Y448000D02*
X880000Y452000D01*
D12*
X966635Y378651D02*
X966635Y376746D01*
X966633Y376709D01*
X966628Y376672D01*
X966619Y376635D01*
X966606Y376600D01*
X966590Y376566D01*
X966571Y376534D01*
X966549Y376504D01*
X966523Y376477D01*
X966496Y376451D01*
X966466Y376429D01*
X966434Y376410D01*
X966400Y376394D01*
X966365Y376381D01*
X966328Y376372D01*
X966291Y376367D01*
X966254Y376365D01*
X966127Y376365D01*
X966572Y379286D02*
X966572Y379413D01*
X966699Y379413D01*
X966699Y379286D01*
X966572Y379286D01*
X967530Y377254D02*
X967530Y377127D01*
X967530Y377254D02*
X967657Y377254D01*
X967657Y377127D01*
X967530Y377127D01*
X970108Y377127D02*
X969727Y378651D01*
X970489Y378143D02*
X970108Y377127D01*
X970870Y377127D02*
X970489Y378143D01*
X971251Y378651D02*
X970870Y377127D01*
X972115Y376365D02*
X972369Y376365D01*
X973131Y378651D01*
X972115Y378651D02*
X972623Y377127D01*
X974044Y377508D02*
X974044Y379413D01*
X974044Y377508D02*
X974046Y377471D01*
X974051Y377434D01*
X974060Y377397D01*
X974073Y377362D01*
X974089Y377328D01*
X974108Y377296D01*
X974130Y377266D01*
X974156Y377239D01*
X974183Y377213D01*
X974213Y377191D01*
X974245Y377172D01*
X974279Y377156D01*
X974314Y377143D01*
X974351Y377134D01*
X974388Y377129D01*
X974425Y377127D01*
X975214Y377127D02*
X975214Y378651D01*
X975150Y379286D02*
X975150Y379413D01*
X975277Y379413D01*
X975277Y379286D01*
X975150Y379286D01*
X976534Y377127D02*
X977169Y377127D01*
X976534Y377127D02*
X976497Y377129D01*
X976460Y377134D01*
X976423Y377143D01*
X976388Y377156D01*
X976354Y377172D01*
X976322Y377191D01*
X976292Y377213D01*
X976265Y377239D01*
X976239Y377266D01*
X976217Y377296D01*
X976198Y377328D01*
X976182Y377362D01*
X976169Y377397D01*
X976160Y377434D01*
X976155Y377471D01*
X976153Y377508D01*
X976153Y378143D01*
X976155Y378187D01*
X976161Y378231D01*
X976170Y378274D01*
X976184Y378317D01*
X976201Y378358D01*
X976221Y378397D01*
X976245Y378434D01*
X976272Y378470D01*
X976302Y378502D01*
X976334Y378532D01*
X976370Y378559D01*
X976407Y378583D01*
X976446Y378603D01*
X976487Y378620D01*
X976530Y378634D01*
X976573Y378643D01*
X976617Y378649D01*
X976661Y378651D01*
X976705Y378649D01*
X976749Y378643D01*
X976792Y378634D01*
X976835Y378620D01*
X976876Y378603D01*
X976915Y378583D01*
X976952Y378559D01*
X976988Y378532D01*
X977020Y378502D01*
X977050Y378470D01*
X977077Y378434D01*
X977101Y378397D01*
X977121Y378358D01*
X977138Y378317D01*
X977152Y378274D01*
X977161Y378231D01*
X977167Y378187D01*
X977169Y378143D01*
X977169Y377889D01*
X976153Y377889D01*
X939185Y364937D02*
X938127Y364090D01*
X939185Y364937D02*
X939185Y361127D01*
X938127Y361127D02*
X940244Y361127D01*
X941785Y363244D02*
X943055Y363244D01*
X943110Y363242D01*
X943166Y363237D01*
X943220Y363228D01*
X943274Y363215D01*
X943327Y363199D01*
X943379Y363180D01*
X943430Y363157D01*
X943479Y363131D01*
X943526Y363101D01*
X943571Y363069D01*
X943613Y363034D01*
X943654Y362996D01*
X943692Y362955D01*
X943727Y362913D01*
X943759Y362868D01*
X943789Y362821D01*
X943815Y362772D01*
X943838Y362721D01*
X943857Y362669D01*
X943873Y362616D01*
X943886Y362562D01*
X943895Y362508D01*
X943900Y362452D01*
X943902Y362397D01*
X943901Y362397D02*
X943901Y362185D01*
X943899Y362121D01*
X943893Y362057D01*
X943884Y361994D01*
X943870Y361932D01*
X943853Y361870D01*
X943832Y361810D01*
X943808Y361751D01*
X943780Y361693D01*
X943748Y361638D01*
X943714Y361584D01*
X943676Y361533D01*
X943635Y361483D01*
X943591Y361437D01*
X943545Y361393D01*
X943495Y361352D01*
X943444Y361314D01*
X943390Y361280D01*
X943335Y361248D01*
X943277Y361220D01*
X943218Y361196D01*
X943158Y361175D01*
X943096Y361158D01*
X943034Y361144D01*
X942971Y361135D01*
X942907Y361129D01*
X942843Y361127D01*
X942779Y361129D01*
X942715Y361135D01*
X942652Y361144D01*
X942590Y361158D01*
X942528Y361175D01*
X942468Y361196D01*
X942409Y361220D01*
X942351Y361248D01*
X942296Y361280D01*
X942242Y361314D01*
X942191Y361352D01*
X942141Y361393D01*
X942095Y361437D01*
X942051Y361483D01*
X942010Y361533D01*
X941972Y361584D01*
X941938Y361638D01*
X941906Y361693D01*
X941878Y361751D01*
X941854Y361810D01*
X941833Y361870D01*
X941816Y361932D01*
X941802Y361994D01*
X941793Y362057D01*
X941787Y362121D01*
X941785Y362185D01*
X941785Y363244D01*
X941787Y363325D01*
X941793Y363405D01*
X941802Y363485D01*
X941816Y363564D01*
X941833Y363643D01*
X941854Y363721D01*
X941878Y363798D01*
X941906Y363873D01*
X941938Y363947D01*
X941973Y364020D01*
X942012Y364090D01*
X942054Y364159D01*
X942099Y364226D01*
X942147Y364291D01*
X942199Y364353D01*
X942253Y364412D01*
X942310Y364469D01*
X942369Y364523D01*
X942431Y364575D01*
X942496Y364623D01*
X942563Y364668D01*
X942631Y364710D01*
X942702Y364749D01*
X942775Y364784D01*
X942849Y364816D01*
X942924Y364844D01*
X943001Y364868D01*
X943079Y364889D01*
X943158Y364906D01*
X943237Y364920D01*
X943317Y364929D01*
X943397Y364935D01*
X943478Y364937D01*
X948932Y365360D02*
X947239Y360704D01*
X952269Y363032D02*
X952271Y363142D01*
X952277Y363251D01*
X952286Y363360D01*
X952300Y363469D01*
X952317Y363577D01*
X952338Y363685D01*
X952362Y363791D01*
X952391Y363897D01*
X952423Y364002D01*
X952458Y364106D01*
X952497Y364208D01*
X952540Y364309D01*
X952587Y364408D01*
X952607Y364458D01*
X952629Y364507D01*
X952655Y364555D01*
X952684Y364600D01*
X952717Y364643D01*
X952752Y364684D01*
X952790Y364723D01*
X952830Y364758D01*
X952873Y364791D01*
X952918Y364821D01*
X952965Y364848D01*
X953013Y364871D01*
X953063Y364891D01*
X953115Y364907D01*
X953167Y364920D01*
X953220Y364930D01*
X953274Y364935D01*
X953328Y364937D01*
X953382Y364935D01*
X953436Y364930D01*
X953489Y364920D01*
X953541Y364907D01*
X953593Y364891D01*
X953643Y364871D01*
X953691Y364848D01*
X953738Y364821D01*
X953783Y364791D01*
X953826Y364758D01*
X953866Y364723D01*
X953904Y364684D01*
X953939Y364643D01*
X953972Y364600D01*
X954001Y364555D01*
X954027Y364507D01*
X954049Y364458D01*
X954069Y364408D01*
X954116Y364309D01*
X954159Y364208D01*
X954198Y364106D01*
X954233Y364002D01*
X954265Y363897D01*
X954294Y363791D01*
X954318Y363685D01*
X954339Y363577D01*
X954356Y363469D01*
X954370Y363360D01*
X954379Y363251D01*
X954385Y363142D01*
X954387Y363032D01*
X952269Y363032D02*
X952271Y362922D01*
X952277Y362813D01*
X952286Y362704D01*
X952300Y362595D01*
X952317Y362487D01*
X952338Y362379D01*
X952362Y362273D01*
X952391Y362167D01*
X952423Y362062D01*
X952458Y361959D01*
X952497Y361856D01*
X952540Y361755D01*
X952587Y361656D01*
X952607Y361606D01*
X952629Y361557D01*
X952655Y361509D01*
X952684Y361464D01*
X952717Y361421D01*
X952752Y361380D01*
X952790Y361341D01*
X952830Y361306D01*
X952873Y361273D01*
X952918Y361243D01*
X952965Y361216D01*
X953013Y361193D01*
X953063Y361173D01*
X953115Y361157D01*
X953167Y361144D01*
X953220Y361134D01*
X953274Y361129D01*
X953328Y361127D01*
X954068Y361656D02*
X954115Y361755D01*
X954158Y361856D01*
X954197Y361959D01*
X954232Y362062D01*
X954264Y362167D01*
X954293Y362273D01*
X954317Y362379D01*
X954338Y362487D01*
X954355Y362595D01*
X954369Y362704D01*
X954378Y362813D01*
X954384Y362922D01*
X954386Y363032D01*
X954069Y361656D02*
X954049Y361606D01*
X954027Y361557D01*
X954001Y361509D01*
X953972Y361464D01*
X953939Y361421D01*
X953904Y361380D01*
X953866Y361341D01*
X953826Y361306D01*
X953783Y361273D01*
X953738Y361243D01*
X953691Y361216D01*
X953643Y361193D01*
X953593Y361173D01*
X953541Y361157D01*
X953489Y361144D01*
X953436Y361134D01*
X953382Y361129D01*
X953328Y361127D01*
X952481Y361974D02*
X954175Y364090D01*
X955927Y361127D02*
X957197Y361127D01*
X957252Y361129D01*
X957308Y361134D01*
X957362Y361143D01*
X957416Y361156D01*
X957469Y361172D01*
X957521Y361191D01*
X957572Y361214D01*
X957621Y361240D01*
X957668Y361270D01*
X957713Y361302D01*
X957755Y361337D01*
X957796Y361375D01*
X957834Y361416D01*
X957869Y361458D01*
X957901Y361503D01*
X957931Y361551D01*
X957957Y361599D01*
X957980Y361650D01*
X957999Y361702D01*
X958015Y361755D01*
X958028Y361809D01*
X958037Y361863D01*
X958042Y361919D01*
X958044Y361974D01*
X958044Y362397D01*
X958042Y362452D01*
X958037Y362508D01*
X958028Y362562D01*
X958015Y362616D01*
X957999Y362669D01*
X957980Y362721D01*
X957957Y362772D01*
X957931Y362821D01*
X957901Y362868D01*
X957869Y362913D01*
X957834Y362955D01*
X957796Y362996D01*
X957755Y363034D01*
X957713Y363069D01*
X957668Y363101D01*
X957621Y363131D01*
X957572Y363157D01*
X957521Y363180D01*
X957469Y363199D01*
X957416Y363215D01*
X957362Y363228D01*
X957308Y363237D01*
X957252Y363242D01*
X957197Y363244D01*
X955927Y363244D01*
X955927Y364937D01*
X958044Y364937D01*
X963075Y365360D02*
X961381Y360704D01*
X967576Y364938D02*
X967636Y364936D01*
X967695Y364930D01*
X967755Y364921D01*
X967813Y364908D01*
X967870Y364891D01*
X967927Y364871D01*
X967982Y364847D01*
X968035Y364820D01*
X968087Y364790D01*
X968136Y364756D01*
X968183Y364719D01*
X968228Y364680D01*
X968271Y364637D01*
X968310Y364592D01*
X968347Y364545D01*
X968381Y364496D01*
X968411Y364444D01*
X968438Y364391D01*
X968462Y364336D01*
X968482Y364279D01*
X968499Y364222D01*
X968512Y364164D01*
X968521Y364104D01*
X968527Y364045D01*
X968529Y363985D01*
X967576Y364937D02*
X967509Y364935D01*
X967442Y364930D01*
X967376Y364921D01*
X967310Y364908D01*
X967246Y364892D01*
X967182Y364872D01*
X967119Y364848D01*
X967057Y364822D01*
X966998Y364792D01*
X966940Y364759D01*
X966883Y364722D01*
X966829Y364683D01*
X966777Y364641D01*
X966728Y364596D01*
X966681Y364548D01*
X966637Y364498D01*
X966595Y364445D01*
X966557Y364390D01*
X966521Y364334D01*
X966489Y364275D01*
X966460Y364215D01*
X966434Y364153D01*
X966412Y364090D01*
X968212Y363244D02*
X968253Y363286D01*
X968292Y363331D01*
X968329Y363377D01*
X968363Y363426D01*
X968394Y363476D01*
X968421Y363528D01*
X968446Y363582D01*
X968468Y363637D01*
X968487Y363693D01*
X968502Y363750D01*
X968514Y363808D01*
X968522Y363867D01*
X968527Y363926D01*
X968529Y363985D01*
X968211Y363244D02*
X966412Y361127D01*
X968529Y361127D01*
X970069Y363032D02*
X970071Y363142D01*
X970077Y363251D01*
X970086Y363360D01*
X970100Y363469D01*
X970117Y363577D01*
X970138Y363685D01*
X970162Y363791D01*
X970191Y363897D01*
X970223Y364002D01*
X970258Y364106D01*
X970297Y364208D01*
X970340Y364309D01*
X970387Y364408D01*
X970407Y364458D01*
X970429Y364507D01*
X970455Y364555D01*
X970484Y364600D01*
X970517Y364643D01*
X970552Y364684D01*
X970590Y364723D01*
X970630Y364758D01*
X970673Y364791D01*
X970718Y364821D01*
X970765Y364848D01*
X970813Y364871D01*
X970863Y364891D01*
X970915Y364907D01*
X970967Y364920D01*
X971020Y364930D01*
X971074Y364935D01*
X971128Y364937D01*
X971182Y364935D01*
X971236Y364930D01*
X971289Y364920D01*
X971341Y364907D01*
X971393Y364891D01*
X971443Y364871D01*
X971491Y364848D01*
X971538Y364821D01*
X971583Y364791D01*
X971626Y364758D01*
X971666Y364723D01*
X971704Y364684D01*
X971739Y364643D01*
X971772Y364600D01*
X971801Y364555D01*
X971827Y364507D01*
X971849Y364458D01*
X971869Y364408D01*
X971916Y364309D01*
X971959Y364208D01*
X971998Y364106D01*
X972033Y364002D01*
X972065Y363897D01*
X972094Y363791D01*
X972118Y363685D01*
X972139Y363577D01*
X972156Y363469D01*
X972170Y363360D01*
X972179Y363251D01*
X972185Y363142D01*
X972187Y363032D01*
X970070Y363032D02*
X970072Y362922D01*
X970078Y362813D01*
X970087Y362704D01*
X970101Y362595D01*
X970118Y362487D01*
X970139Y362379D01*
X970163Y362273D01*
X970192Y362167D01*
X970224Y362062D01*
X970259Y361959D01*
X970298Y361856D01*
X970341Y361755D01*
X970388Y361656D01*
X970387Y361656D02*
X970407Y361606D01*
X970429Y361557D01*
X970455Y361509D01*
X970484Y361464D01*
X970517Y361421D01*
X970552Y361380D01*
X970590Y361341D01*
X970630Y361306D01*
X970673Y361273D01*
X970718Y361243D01*
X970765Y361216D01*
X970813Y361193D01*
X970863Y361173D01*
X970915Y361157D01*
X970967Y361144D01*
X971020Y361134D01*
X971074Y361129D01*
X971128Y361127D01*
X971869Y361656D02*
X971916Y361755D01*
X971959Y361856D01*
X971998Y361959D01*
X972033Y362062D01*
X972065Y362167D01*
X972094Y362273D01*
X972118Y362379D01*
X972139Y362487D01*
X972156Y362595D01*
X972170Y362704D01*
X972179Y362813D01*
X972185Y362922D01*
X972187Y363032D01*
X971869Y361656D02*
X971849Y361606D01*
X971827Y361557D01*
X971801Y361509D01*
X971772Y361464D01*
X971739Y361421D01*
X971704Y361380D01*
X971666Y361341D01*
X971626Y361306D01*
X971583Y361273D01*
X971538Y361243D01*
X971491Y361216D01*
X971443Y361193D01*
X971393Y361173D01*
X971341Y361157D01*
X971289Y361144D01*
X971236Y361134D01*
X971182Y361129D01*
X971128Y361127D01*
X970282Y361974D02*
X971975Y364090D01*
X974892Y364938D02*
X974952Y364936D01*
X975011Y364930D01*
X975071Y364921D01*
X975129Y364908D01*
X975186Y364891D01*
X975243Y364871D01*
X975298Y364847D01*
X975351Y364820D01*
X975403Y364790D01*
X975452Y364756D01*
X975499Y364719D01*
X975544Y364680D01*
X975587Y364637D01*
X975626Y364592D01*
X975663Y364545D01*
X975697Y364496D01*
X975727Y364444D01*
X975754Y364391D01*
X975778Y364336D01*
X975798Y364279D01*
X975815Y364222D01*
X975828Y364164D01*
X975837Y364104D01*
X975843Y364045D01*
X975845Y363985D01*
X974892Y364937D02*
X974825Y364935D01*
X974758Y364930D01*
X974692Y364921D01*
X974626Y364908D01*
X974562Y364892D01*
X974498Y364872D01*
X974435Y364848D01*
X974373Y364822D01*
X974314Y364792D01*
X974256Y364759D01*
X974199Y364722D01*
X974145Y364683D01*
X974093Y364641D01*
X974044Y364596D01*
X973997Y364548D01*
X973953Y364498D01*
X973911Y364445D01*
X973873Y364390D01*
X973837Y364334D01*
X973805Y364275D01*
X973776Y364215D01*
X973750Y364153D01*
X973728Y364090D01*
X975527Y363244D02*
X975568Y363286D01*
X975607Y363331D01*
X975644Y363377D01*
X975678Y363426D01*
X975709Y363476D01*
X975736Y363528D01*
X975761Y363582D01*
X975783Y363637D01*
X975802Y363693D01*
X975817Y363750D01*
X975829Y363808D01*
X975837Y363867D01*
X975842Y363926D01*
X975844Y363985D01*
X975527Y363244D02*
X973727Y361127D01*
X975844Y361127D01*
X979502Y363985D02*
X979500Y364045D01*
X979494Y364104D01*
X979485Y364164D01*
X979472Y364222D01*
X979455Y364279D01*
X979435Y364336D01*
X979411Y364391D01*
X979384Y364444D01*
X979354Y364496D01*
X979320Y364545D01*
X979283Y364592D01*
X979244Y364637D01*
X979201Y364680D01*
X979156Y364719D01*
X979109Y364756D01*
X979060Y364790D01*
X979008Y364820D01*
X978955Y364847D01*
X978900Y364871D01*
X978843Y364891D01*
X978786Y364908D01*
X978728Y364921D01*
X978668Y364930D01*
X978609Y364936D01*
X978549Y364938D01*
X978549Y364937D02*
X978482Y364935D01*
X978415Y364930D01*
X978349Y364921D01*
X978283Y364908D01*
X978219Y364892D01*
X978155Y364872D01*
X978092Y364848D01*
X978030Y364822D01*
X977971Y364792D01*
X977913Y364759D01*
X977856Y364722D01*
X977802Y364683D01*
X977750Y364641D01*
X977701Y364596D01*
X977654Y364548D01*
X977610Y364498D01*
X977568Y364445D01*
X977530Y364390D01*
X977494Y364334D01*
X977462Y364275D01*
X977433Y364215D01*
X977407Y364153D01*
X977385Y364090D01*
X979185Y363244D02*
X979226Y363286D01*
X979265Y363331D01*
X979302Y363377D01*
X979336Y363426D01*
X979367Y363476D01*
X979394Y363528D01*
X979419Y363582D01*
X979441Y363637D01*
X979460Y363693D01*
X979475Y363750D01*
X979487Y363808D01*
X979495Y363867D01*
X979500Y363926D01*
X979502Y363985D01*
X979184Y363244D02*
X977385Y361127D01*
X979502Y361127D01*
D13*
X768419Y324734D02*
X768419Y295524D01*
X768419Y324734D02*
X768421Y324884D01*
X768427Y325035D01*
X768436Y325185D01*
X768450Y325335D01*
X768467Y325484D01*
X768489Y325633D01*
X768514Y325781D01*
X768543Y325929D01*
X768575Y326076D01*
X768612Y326222D01*
X768652Y326367D01*
X768696Y326511D01*
X768743Y326653D01*
X768795Y326795D01*
X768849Y326935D01*
X768908Y327073D01*
X768970Y327211D01*
X769035Y327346D01*
X769104Y327480D01*
X769177Y327611D01*
X769253Y327741D01*
X769332Y327869D01*
X769414Y327995D01*
X769500Y328119D01*
X769588Y328240D01*
X769680Y328360D01*
X769775Y328476D01*
X769873Y328591D01*
X769974Y328702D01*
X770077Y328811D01*
X770184Y328918D01*
X770293Y329021D01*
X770404Y329122D01*
X770519Y329220D01*
X770635Y329315D01*
X770755Y329407D01*
X770876Y329495D01*
X771000Y329581D01*
X771126Y329663D01*
X771254Y329742D01*
X771384Y329818D01*
X771515Y329891D01*
X771649Y329960D01*
X771784Y330025D01*
X771922Y330087D01*
X772060Y330146D01*
X772200Y330200D01*
X772342Y330252D01*
X772484Y330299D01*
X772628Y330343D01*
X772773Y330383D01*
X772919Y330420D01*
X773066Y330452D01*
X773214Y330481D01*
X773362Y330506D01*
X773511Y330528D01*
X773660Y330545D01*
X773810Y330559D01*
X773960Y330568D01*
X774111Y330574D01*
X774261Y330576D01*
X776208Y330576D01*
X776208Y318892D02*
X764524Y318892D01*
X783828Y318892D02*
X783828Y295524D01*
X782854Y328629D02*
X782854Y330576D01*
X784802Y330576D01*
X784802Y328629D01*
X782854Y328629D01*
X795055Y318892D02*
X795055Y295524D01*
X795055Y318892D02*
X806739Y318892D01*
X806739Y314997D01*
X817060Y309155D02*
X826796Y305261D01*
X817060Y309155D02*
X816929Y309210D01*
X816800Y309268D01*
X816673Y309329D01*
X816547Y309394D01*
X816423Y309463D01*
X816301Y309535D01*
X816182Y309611D01*
X816064Y309690D01*
X815949Y309772D01*
X815836Y309857D01*
X815725Y309945D01*
X815617Y310037D01*
X815512Y310131D01*
X815409Y310229D01*
X815309Y310329D01*
X815212Y310432D01*
X815118Y310538D01*
X815027Y310646D01*
X814939Y310757D01*
X814854Y310870D01*
X814772Y310986D01*
X814694Y311103D01*
X814619Y311223D01*
X814547Y311345D01*
X814479Y311469D01*
X814414Y311595D01*
X814353Y311723D01*
X814295Y311852D01*
X814241Y311983D01*
X814191Y312115D01*
X814144Y312249D01*
X814101Y312384D01*
X814062Y312520D01*
X814027Y312657D01*
X813996Y312795D01*
X813969Y312934D01*
X813945Y313073D01*
X813925Y313214D01*
X813910Y313354D01*
X813898Y313495D01*
X813890Y313637D01*
X813886Y313778D01*
X813887Y313920D01*
X813891Y314061D01*
X813899Y314202D01*
X813911Y314343D01*
X813927Y314484D01*
X813947Y314624D01*
X813971Y314764D01*
X813998Y314902D01*
X814030Y315040D01*
X814066Y315177D01*
X814105Y315313D01*
X814148Y315448D01*
X814195Y315582D01*
X814245Y315714D01*
X814300Y315845D01*
X814358Y315974D01*
X814419Y316101D01*
X814484Y316227D01*
X814553Y316351D01*
X814625Y316473D01*
X814700Y316592D01*
X814779Y316710D01*
X814861Y316825D01*
X814946Y316938D01*
X815035Y317049D01*
X815126Y317157D01*
X815220Y317263D01*
X815318Y317365D01*
X815418Y317465D01*
X815521Y317563D01*
X815626Y317657D01*
X815735Y317748D01*
X815845Y317836D01*
X815958Y317921D01*
X816074Y318003D01*
X816192Y318082D01*
X816311Y318157D01*
X816433Y318229D01*
X816557Y318297D01*
X816683Y318362D01*
X816811Y318423D01*
X816940Y318481D01*
X817071Y318535D01*
X817203Y318586D01*
X817337Y318632D01*
X817471Y318675D01*
X817607Y318714D01*
X817745Y318750D01*
X817883Y318781D01*
X818021Y318809D01*
X818161Y318832D01*
X818301Y318852D01*
X818442Y318868D01*
X818583Y318880D01*
X818724Y318888D01*
X818866Y318892D01*
X819007Y318891D01*
X819007Y318892D02*
X819538Y318878D01*
X820069Y318851D01*
X820600Y318811D01*
X821129Y318759D01*
X821657Y318694D01*
X822183Y318617D01*
X822707Y318526D01*
X823228Y318424D01*
X823747Y318308D01*
X824264Y318180D01*
X824776Y318040D01*
X825286Y317888D01*
X825791Y317723D01*
X826293Y317546D01*
X826790Y317358D01*
X827282Y317157D01*
X827770Y316944D01*
X826796Y305261D02*
X826927Y305206D01*
X827056Y305148D01*
X827183Y305087D01*
X827309Y305022D01*
X827433Y304953D01*
X827554Y304881D01*
X827674Y304805D01*
X827792Y304726D01*
X827907Y304644D01*
X828020Y304559D01*
X828131Y304471D01*
X828239Y304379D01*
X828344Y304285D01*
X828447Y304187D01*
X828547Y304087D01*
X828644Y303984D01*
X828738Y303878D01*
X828829Y303770D01*
X828917Y303659D01*
X829002Y303546D01*
X829084Y303430D01*
X829162Y303313D01*
X829237Y303193D01*
X829309Y303071D01*
X829377Y302947D01*
X829442Y302821D01*
X829503Y302693D01*
X829561Y302564D01*
X829615Y302433D01*
X829665Y302301D01*
X829712Y302167D01*
X829755Y302032D01*
X829794Y301896D01*
X829829Y301759D01*
X829860Y301621D01*
X829887Y301482D01*
X829911Y301343D01*
X829931Y301202D01*
X829946Y301062D01*
X829958Y300921D01*
X829966Y300779D01*
X829970Y300638D01*
X829969Y300496D01*
X829965Y300355D01*
X829957Y300214D01*
X829945Y300073D01*
X829929Y299932D01*
X829909Y299792D01*
X829885Y299652D01*
X829858Y299514D01*
X829826Y299376D01*
X829790Y299239D01*
X829751Y299103D01*
X829708Y298968D01*
X829661Y298834D01*
X829611Y298702D01*
X829556Y298571D01*
X829498Y298442D01*
X829437Y298315D01*
X829372Y298189D01*
X829303Y298065D01*
X829231Y297943D01*
X829156Y297824D01*
X829077Y297706D01*
X828995Y297591D01*
X828910Y297478D01*
X828821Y297367D01*
X828730Y297259D01*
X828636Y297153D01*
X828538Y297051D01*
X828438Y296951D01*
X828335Y296853D01*
X828230Y296759D01*
X828122Y296668D01*
X828011Y296580D01*
X827898Y296495D01*
X827782Y296413D01*
X827664Y296334D01*
X827545Y296259D01*
X827423Y296187D01*
X827299Y296119D01*
X827173Y296054D01*
X827045Y295993D01*
X826916Y295935D01*
X826785Y295881D01*
X826653Y295830D01*
X826519Y295784D01*
X826385Y295741D01*
X826249Y295702D01*
X826111Y295666D01*
X825973Y295635D01*
X825835Y295607D01*
X825695Y295584D01*
X825555Y295564D01*
X825414Y295548D01*
X825273Y295536D01*
X825132Y295528D01*
X824990Y295524D01*
X824849Y295525D01*
X824849Y295524D02*
X824069Y295545D01*
X823288Y295584D01*
X822509Y295641D01*
X821732Y295717D01*
X820957Y295811D01*
X820184Y295923D01*
X819414Y296054D01*
X818647Y296202D01*
X817884Y296369D01*
X817125Y296554D01*
X816370Y296757D01*
X815621Y296978D01*
X814877Y297216D01*
X814139Y297472D01*
X837083Y318892D02*
X848767Y318892D01*
X840978Y330576D02*
X840978Y301366D01*
X840980Y301216D01*
X840986Y301065D01*
X840995Y300915D01*
X841009Y300765D01*
X841026Y300616D01*
X841048Y300467D01*
X841073Y300319D01*
X841102Y300171D01*
X841134Y300024D01*
X841171Y299878D01*
X841211Y299733D01*
X841255Y299589D01*
X841302Y299447D01*
X841354Y299305D01*
X841408Y299165D01*
X841467Y299027D01*
X841529Y298889D01*
X841594Y298754D01*
X841663Y298620D01*
X841736Y298489D01*
X841812Y298359D01*
X841891Y298231D01*
X841973Y298105D01*
X842059Y297981D01*
X842147Y297860D01*
X842239Y297740D01*
X842334Y297624D01*
X842432Y297509D01*
X842533Y297398D01*
X842636Y297289D01*
X842743Y297182D01*
X842852Y297079D01*
X842963Y296978D01*
X843078Y296880D01*
X843194Y296785D01*
X843314Y296693D01*
X843435Y296605D01*
X843559Y296519D01*
X843685Y296437D01*
X843813Y296358D01*
X843943Y296282D01*
X844074Y296209D01*
X844208Y296140D01*
X844343Y296075D01*
X844481Y296013D01*
X844619Y295954D01*
X844759Y295900D01*
X844901Y295848D01*
X845043Y295801D01*
X845187Y295757D01*
X845332Y295717D01*
X845478Y295680D01*
X845625Y295648D01*
X845773Y295619D01*
X845921Y295594D01*
X846070Y295572D01*
X846219Y295555D01*
X846369Y295541D01*
X846519Y295532D01*
X846670Y295526D01*
X846820Y295524D01*
X848767Y295524D01*
X873278Y301366D02*
X873278Y330576D01*
X873278Y301366D02*
X873280Y301216D01*
X873286Y301065D01*
X873295Y300915D01*
X873309Y300765D01*
X873326Y300616D01*
X873348Y300467D01*
X873373Y300319D01*
X873402Y300171D01*
X873434Y300024D01*
X873471Y299878D01*
X873511Y299733D01*
X873555Y299589D01*
X873602Y299447D01*
X873654Y299305D01*
X873708Y299165D01*
X873767Y299027D01*
X873829Y298889D01*
X873894Y298754D01*
X873963Y298620D01*
X874036Y298489D01*
X874112Y298359D01*
X874191Y298231D01*
X874273Y298105D01*
X874359Y297981D01*
X874447Y297860D01*
X874539Y297740D01*
X874634Y297624D01*
X874732Y297509D01*
X874833Y297398D01*
X874936Y297289D01*
X875043Y297182D01*
X875152Y297079D01*
X875263Y296978D01*
X875378Y296880D01*
X875494Y296785D01*
X875614Y296693D01*
X875735Y296605D01*
X875859Y296519D01*
X875985Y296437D01*
X876113Y296358D01*
X876243Y296282D01*
X876374Y296209D01*
X876508Y296140D01*
X876643Y296075D01*
X876781Y296013D01*
X876919Y295954D01*
X877059Y295900D01*
X877201Y295848D01*
X877343Y295801D01*
X877487Y295757D01*
X877632Y295717D01*
X877778Y295680D01*
X877925Y295648D01*
X878073Y295619D01*
X878221Y295594D01*
X878370Y295572D01*
X878519Y295555D01*
X878669Y295541D01*
X878819Y295532D01*
X878970Y295526D01*
X879120Y295524D01*
X888603Y295524D02*
X888603Y318892D01*
X887629Y328629D02*
X887629Y330576D01*
X889577Y330576D01*
X889577Y328629D01*
X887629Y328629D01*
X904777Y295524D02*
X914514Y295524D01*
X904777Y295524D02*
X904627Y295526D01*
X904476Y295532D01*
X904326Y295541D01*
X904176Y295555D01*
X904027Y295572D01*
X903878Y295594D01*
X903730Y295619D01*
X903582Y295648D01*
X903435Y295680D01*
X903289Y295717D01*
X903144Y295757D01*
X903000Y295801D01*
X902858Y295848D01*
X902716Y295900D01*
X902576Y295954D01*
X902438Y296013D01*
X902300Y296075D01*
X902165Y296140D01*
X902031Y296209D01*
X901900Y296282D01*
X901770Y296358D01*
X901642Y296437D01*
X901516Y296519D01*
X901392Y296605D01*
X901271Y296693D01*
X901151Y296785D01*
X901035Y296880D01*
X900920Y296978D01*
X900809Y297079D01*
X900700Y297182D01*
X900593Y297289D01*
X900490Y297398D01*
X900389Y297509D01*
X900291Y297624D01*
X900196Y297740D01*
X900104Y297860D01*
X900016Y297981D01*
X899930Y298105D01*
X899848Y298231D01*
X899769Y298359D01*
X899693Y298489D01*
X899620Y298620D01*
X899551Y298754D01*
X899486Y298889D01*
X899424Y299027D01*
X899365Y299165D01*
X899311Y299305D01*
X899259Y299447D01*
X899212Y299589D01*
X899168Y299733D01*
X899128Y299878D01*
X899091Y300024D01*
X899059Y300171D01*
X899030Y300319D01*
X899005Y300467D01*
X898983Y300616D01*
X898966Y300765D01*
X898952Y300915D01*
X898943Y301065D01*
X898937Y301216D01*
X898935Y301366D01*
X898935Y313050D01*
X898937Y313200D01*
X898943Y313351D01*
X898952Y313501D01*
X898966Y313651D01*
X898983Y313800D01*
X899005Y313949D01*
X899030Y314097D01*
X899059Y314245D01*
X899091Y314392D01*
X899128Y314538D01*
X899168Y314683D01*
X899212Y314827D01*
X899259Y314969D01*
X899311Y315111D01*
X899365Y315251D01*
X899424Y315389D01*
X899486Y315527D01*
X899551Y315662D01*
X899620Y315796D01*
X899693Y315927D01*
X899769Y316057D01*
X899848Y316185D01*
X899930Y316311D01*
X900016Y316435D01*
X900104Y316556D01*
X900196Y316676D01*
X900291Y316792D01*
X900389Y316907D01*
X900490Y317018D01*
X900593Y317127D01*
X900700Y317234D01*
X900809Y317337D01*
X900920Y317438D01*
X901035Y317536D01*
X901151Y317631D01*
X901271Y317723D01*
X901392Y317811D01*
X901516Y317897D01*
X901642Y317979D01*
X901770Y318058D01*
X901900Y318134D01*
X902031Y318207D01*
X902165Y318276D01*
X902300Y318341D01*
X902438Y318403D01*
X902576Y318462D01*
X902716Y318516D01*
X902858Y318568D01*
X903000Y318615D01*
X903144Y318659D01*
X903289Y318699D01*
X903435Y318736D01*
X903582Y318768D01*
X903730Y318797D01*
X903878Y318822D01*
X904027Y318844D01*
X904176Y318861D01*
X904326Y318875D01*
X904476Y318884D01*
X904627Y318890D01*
X904777Y318892D01*
X914514Y318892D01*
X914514Y289682D01*
X914512Y289532D01*
X914506Y289381D01*
X914497Y289231D01*
X914483Y289081D01*
X914466Y288932D01*
X914444Y288783D01*
X914419Y288635D01*
X914390Y288487D01*
X914358Y288340D01*
X914321Y288194D01*
X914281Y288049D01*
X914237Y287905D01*
X914190Y287763D01*
X914138Y287621D01*
X914084Y287481D01*
X914025Y287343D01*
X913963Y287205D01*
X913898Y287070D01*
X913829Y286936D01*
X913756Y286805D01*
X913680Y286675D01*
X913601Y286547D01*
X913519Y286421D01*
X913433Y286297D01*
X913345Y286176D01*
X913253Y286056D01*
X913158Y285940D01*
X913060Y285825D01*
X912959Y285714D01*
X912856Y285605D01*
X912749Y285498D01*
X912640Y285395D01*
X912529Y285294D01*
X912414Y285196D01*
X912298Y285101D01*
X912178Y285009D01*
X912057Y284921D01*
X911933Y284835D01*
X911807Y284753D01*
X911679Y284674D01*
X911549Y284598D01*
X911418Y284525D01*
X911284Y284456D01*
X911149Y284391D01*
X911011Y284329D01*
X910873Y284270D01*
X910733Y284216D01*
X910591Y284164D01*
X910449Y284117D01*
X910305Y284073D01*
X910160Y284033D01*
X910014Y283996D01*
X909867Y283964D01*
X909719Y283935D01*
X909571Y283910D01*
X909422Y283888D01*
X909273Y283871D01*
X909123Y283857D01*
X908973Y283848D01*
X908822Y283842D01*
X908672Y283840D01*
X900883Y283840D01*
X925581Y295524D02*
X925581Y330576D01*
X925581Y318892D02*
X935318Y318892D01*
X935468Y318890D01*
X935619Y318884D01*
X935769Y318875D01*
X935919Y318861D01*
X936068Y318844D01*
X936217Y318822D01*
X936365Y318797D01*
X936513Y318768D01*
X936660Y318736D01*
X936806Y318699D01*
X936951Y318659D01*
X937095Y318615D01*
X937237Y318568D01*
X937379Y318516D01*
X937519Y318462D01*
X937657Y318403D01*
X937795Y318341D01*
X937930Y318276D01*
X938064Y318207D01*
X938195Y318134D01*
X938325Y318058D01*
X938453Y317979D01*
X938579Y317897D01*
X938703Y317811D01*
X938824Y317723D01*
X938944Y317631D01*
X939060Y317536D01*
X939175Y317438D01*
X939286Y317337D01*
X939395Y317234D01*
X939502Y317127D01*
X939605Y317018D01*
X939706Y316907D01*
X939804Y316792D01*
X939899Y316676D01*
X939991Y316556D01*
X940079Y316435D01*
X940165Y316311D01*
X940247Y316185D01*
X940326Y316057D01*
X940402Y315927D01*
X940475Y315796D01*
X940544Y315662D01*
X940609Y315527D01*
X940671Y315389D01*
X940730Y315251D01*
X940784Y315111D01*
X940836Y314969D01*
X940883Y314827D01*
X940927Y314683D01*
X940967Y314538D01*
X941004Y314392D01*
X941036Y314245D01*
X941065Y314097D01*
X941090Y313949D01*
X941112Y313800D01*
X941129Y313651D01*
X941143Y313501D01*
X941152Y313351D01*
X941158Y313200D01*
X941160Y313050D01*
X941160Y295524D01*
X949478Y318892D02*
X961162Y318892D01*
X953373Y330576D02*
X953373Y301366D01*
X953375Y301216D01*
X953381Y301065D01*
X953390Y300915D01*
X953404Y300765D01*
X953421Y300616D01*
X953443Y300467D01*
X953468Y300319D01*
X953497Y300171D01*
X953529Y300024D01*
X953566Y299878D01*
X953606Y299733D01*
X953650Y299589D01*
X953697Y299447D01*
X953749Y299305D01*
X953803Y299165D01*
X953862Y299027D01*
X953924Y298889D01*
X953989Y298754D01*
X954058Y298620D01*
X954131Y298489D01*
X954207Y298359D01*
X954286Y298231D01*
X954368Y298105D01*
X954454Y297981D01*
X954542Y297860D01*
X954634Y297740D01*
X954729Y297624D01*
X954827Y297509D01*
X954928Y297398D01*
X955031Y297289D01*
X955138Y297182D01*
X955247Y297079D01*
X955358Y296978D01*
X955473Y296880D01*
X955589Y296785D01*
X955709Y296693D01*
X955830Y296605D01*
X955954Y296519D01*
X956080Y296437D01*
X956208Y296358D01*
X956338Y296282D01*
X956469Y296209D01*
X956603Y296140D01*
X956738Y296075D01*
X956876Y296013D01*
X957014Y295954D01*
X957154Y295900D01*
X957296Y295848D01*
X957438Y295801D01*
X957582Y295757D01*
X957727Y295717D01*
X957873Y295680D01*
X958020Y295648D01*
X958168Y295619D01*
X958316Y295594D01*
X958465Y295572D01*
X958614Y295555D01*
X958764Y295541D01*
X958914Y295532D01*
X959065Y295526D01*
X959215Y295524D01*
X961162Y295524D01*
D14*
X637000Y32800D03*
X637000Y15800D03*
X660200Y33100D03*
X660200Y16100D03*
X683400Y32800D03*
X683400Y15800D03*
D15*
X265400Y340600D03*
X211400Y340600D03*
D16*
X188500Y269700D03*
X205500Y269700D03*
D15*
X82800Y236500D03*
X28800Y236500D03*
D17*
X170100Y272900D03*
X170100Y306900D03*
D18*
X30138Y306200D03*
X82462Y306200D03*
D19*
X202320Y211150D03*
X202320Y223850D03*
X202320Y236550D03*
X202320Y249250D03*
X148080Y249250D03*
X148080Y236550D03*
X148080Y223850D03*
X148080Y211150D03*
D20*
X144300Y383700D02*
X144300Y403700D01*
X83300Y403700D02*
X83300Y383700D01*
X103300Y345700D02*
X123300Y345700D01*
X804500Y141100D02*
X824500Y141100D01*
X824500Y80100D02*
X804500Y80100D01*
X862500Y100100D02*
X862500Y120100D01*
D21*
X219450Y178150D03*
X204450Y178150D03*
X327500Y177150D03*
X312500Y177150D03*
D22*
X891900Y79500D03*
X914900Y79500D03*
X937900Y79500D03*
D23*
X914900Y139500D03*
D16*
X682000Y292500D03*
X682000Y309500D03*
D14*
X383000Y297050D03*
X400000Y297050D03*
X422000Y297050D03*
X439000Y297050D03*
X461000Y297050D03*
X478000Y297050D03*
X338000Y218050D03*
X355000Y218050D03*
D16*
X892600Y39200D03*
X892600Y56200D03*
X917200Y39500D03*
X917200Y56500D03*
D14*
X312500Y159050D03*
X329500Y159050D03*
X204550Y159050D03*
X221550Y159050D03*
X114000Y212000D03*
X131000Y212000D03*
D16*
X657000Y292500D03*
X657000Y309500D03*
X148100Y266900D03*
X148100Y283900D03*
X127000Y266900D03*
X127000Y283900D03*
X106000Y267100D03*
X106000Y284100D03*
X632000Y292500D03*
X632000Y309500D03*
X607000Y292500D03*
X607000Y309500D03*
X582000Y292500D03*
X582000Y309500D03*
X557000Y292500D03*
X557000Y309500D03*
X533200Y308900D03*
X533200Y291900D03*
X510600Y309100D03*
X510600Y292100D03*
D14*
X344000Y297050D03*
X361000Y297050D03*
D24*
X785988Y236806D03*
X851012Y236806D03*
X785988Y191594D03*
X851012Y191594D03*
X73588Y168106D03*
X138612Y168106D03*
X73588Y122894D03*
X138612Y122894D03*
X73588Y66406D03*
X138612Y66406D03*
X73588Y21194D03*
X138612Y21194D03*
X179538Y66406D03*
X244562Y66406D03*
X179538Y21194D03*
X244562Y21194D03*
X285488Y66406D03*
X350512Y66406D03*
X285488Y21194D03*
X350512Y21194D03*
D25*
X405900Y336100D03*
X399400Y318100D03*
X412400Y318100D03*
X444900Y336100D03*
X438400Y318100D03*
X451400Y318100D03*
X483900Y336100D03*
X477400Y318100D03*
X490400Y318100D03*
X366900Y336100D03*
X360400Y318100D03*
X373400Y318100D03*
X347900Y262100D03*
X341400Y244100D03*
X354400Y244100D03*
D26*
X409000Y364400D03*
D27*
X434400Y364400D03*
X459800Y364400D03*
X485200Y364400D03*
X510600Y364400D03*
X536000Y364400D03*
X561400Y364400D03*
X586800Y364400D03*
X586800Y466000D03*
X561400Y466000D03*
X536000Y466000D03*
X510600Y466000D03*
X485200Y466000D03*
X459800Y466000D03*
X434400Y466000D03*
X409000Y466000D03*
D28*
X265400Y289500D03*
X265400Y215500D03*
D29*
X610000Y19400D03*
X610000Y32100D03*
X610000Y44800D03*
X610000Y57500D03*
X610000Y70200D03*
X610000Y82900D03*
X610000Y95600D03*
X610000Y108300D03*
X610000Y121000D03*
X610000Y133700D03*
X610000Y146400D03*
X610000Y159100D03*
X610000Y171800D03*
X610000Y184500D03*
D30*
X582150Y194500D03*
X569450Y194500D03*
X556750Y194500D03*
X544050Y194500D03*
X531350Y194500D03*
X518650Y194500D03*
X505950Y194500D03*
X493250Y194500D03*
X480550Y194500D03*
X467850Y194500D03*
D29*
X440000Y184500D03*
X440000Y171800D03*
X440000Y159100D03*
X440000Y146400D03*
X440000Y133700D03*
X440000Y121000D03*
X440000Y108300D03*
X440000Y95600D03*
X440000Y82900D03*
X440000Y70200D03*
X440000Y57500D03*
X440000Y44800D03*
X440000Y32100D03*
X440000Y19400D03*
D31*
X535000Y94400D03*
D16*
X753000Y239500D03*
X753000Y222500D03*
D32*
X484620Y157500D02*
X469380Y157500D01*
X469380Y132100D02*
X484620Y132100D01*
X484620Y106700D02*
X469380Y106700D01*
X469380Y81300D02*
X484620Y81300D01*
X484620Y55900D02*
X469380Y55900D01*
X469380Y30500D02*
X484620Y30500D01*
M02*
